Coordinates
version=1
nRows=12
nColumns=33
inDegrees=yes

Units are S.I. units (second, meters, Newtons, ...)
Angles are in degrees.

endheader
time	ground_thorax_rot_x	ground_thorax_rot_y	ground_thorax_rot_z	ground_thorax_tx	ground_thorax_ty	ground_thorax_tz	clav_prot_r	clav_elev_r	scapula_abduction_r	scapula_elevation_r	scapula_upward_rot_r	scapula_winging_r	shoulder_elv_r	plane_of_elev_r	axial_rot_r	elbow_flexion_r	pro_sup_r	wrist_flex_r	wrist_dev_r	clav_prot_l	clav_elev_l	scapula_abduction_l	scapula_elevation_l	scapula_upward_rot_l	scapula_winging_l	shoulder_elv_l	plane_of_elev_l	axial_rot_l	elbow_flexion_l	pro_sup_l	wrist_flex_l	wrist_dev_l
      0.89000000	     -4.45488721	    -10.20578764	     90.00000000	     -0.01049945	      0.97130700	      0.02217315	     29.31394960	     19.81586634	     45.00000000	     45.00000000	    -44.87529286	     -5.81538074	     29.94295458	    -82.50241258	     45.49381416	     66.85729049	     31.47471475	     42.03871519	     -4.01867457	     31.90555508	     27.82779687	    -45.00000000	    -45.00000000	    -31.62687956	      7.40303365	    -63.72865849	    -90.00000000	     59.65524398	     66.99412369	     45.45950241	    -16.90846031	    -24.99999983
      0.90000000	     -4.61184730	    -10.19631025	     90.00000000	     -0.01043709	      0.97096984	      0.02231277	     29.33519589	     19.85262822	     45.00000000	     45.00000000	    -44.79855340	     -5.82828816	     29.60756747	    -82.79050182	     45.81458992	     67.02385549	     31.66901506	     42.15433992	     -4.05998124	     31.88337774	     27.77191914	    -45.00000000	    -45.00000000	    -31.73656712	      7.39357220	    -63.73332424	    -90.00000000	     59.67736225	     66.51494969	     45.42026341	    -16.84667060	    -24.99999983
      0.91000000	     -4.81758114	    -10.18734404	     90.00000000	     -0.01040394	      0.97062165	      0.02234983	     29.29086692	     19.77789705	     45.00000000	     45.00000000	    -44.95787723	     -5.80606969	     29.29689203	    -82.90873069	     46.09119276	     67.18972371	     31.97513917	     42.33852537	     -4.12926225	     31.88600331	     27.77774866	    -45.00000000	    -45.00000000	    -31.72448007	      7.39445102	    -63.64010969	    -90.00000000	     59.68293931	     66.09502245	     45.36323684	    -16.76459566	    -24.99999983
      0.92000000	     -4.73237964	    -10.11982426	     90.00000000	     -0.01022125	      0.97049412	      0.02230065	     29.27846822	     19.75735648	     45.00000000	     45.00000000	    -45.00000000	     -5.80174288	     28.68858993	    -83.06792357	     45.07105405	     67.22367930	     38.59626553	     44.98921740	     -7.58484217	     31.82584704	     27.62411329	    -45.00000000	    -45.00000000	    -32.02391416	      7.36419584	    -61.42046102	    -90.00000000	     57.43842854	     65.35942357	     43.51169749	    -15.67598772	    -24.99999983
      0.93000000	     -4.87928630	    -10.11879150	     90.00000000	     -0.01003277	      0.96982663	      0.02233315	     29.28295786	     19.76519195	     45.00000000	     45.00000000	    -44.98310903	     -5.80401601	     28.28822744	    -83.17728250	     45.38440439	     67.36707052	     38.67269273	     45.02373951	     -7.58038442	     31.83816299	     27.65615439	    -45.00000000	    -45.00000000	    -31.96182980	      7.37216770	    -61.29542967	    -90.00000000	     57.39104097	     65.16081693	     43.52744478	    -15.62595856	    -24.99999983
      0.94000000	     -5.06324893	    -10.15711502	     90.00000000	     -0.00978562	      0.96917650	      0.02229710	     29.28964523	     19.77843430	     45.00000000	     45.00000000	    -44.95827095	     -5.81310188	     27.83254741	    -83.14865320	     45.68434186	     67.47279188	     38.84362355	     45.08367257	     -7.59236222	     31.86191418	     27.71626083	    -45.00000000	    -45.00000000	    -31.84239449	      7.38682332	    -61.08410835	    -90.00000000	     57.24622221	     64.86688736	     43.55162925	    -15.52403039	    -24.99999983
      0.95000000	     -4.64507665	     -9.88646659	     90.00000000	     -0.00991807	      0.96989703	      0.02241144	     29.48059211	     20.10144485	     45.00000000	     45.00000000	    -44.27396329	     -5.90622428	     23.62208252	    -83.55051813	     41.21636323	     67.11028127	     44.87857566	     46.33392459	    -11.29871003	     31.38308793	     26.54719299	    -45.00000000	    -45.00000000	    -34.13629116	      7.12607693	    -51.48053312	    -90.00000000	     49.75791892	     64.12307664	     43.48913042	    -13.61695243	    -24.99999983
      0.96000000	     -4.65827504	     -9.78313297	     90.00000000	     -0.01004879	      0.96986750	      0.02245631	     29.47205270	     20.08234845	     45.00000000	     45.00000000	    -44.31239131	     -5.89946618	     21.28332586	    -83.55247579	     39.51162005	     66.80843167	     41.80070231	     45.64775566	    -10.42793445	     31.11442829	     25.92127440	    -45.00000000	    -45.00000000	    -35.36549575	      6.97855864	    -46.66071603	    -90.00000000	     45.98081489	     63.52598435	     44.31773808	    -16.25848570	    -24.99999983
      0.97000000	     -4.59531885	     -9.76194294	     90.00000000	     -0.00960955	      0.96938756	      0.02248357	     29.46801939	     20.07769525	     45.00000000	     45.00000000	    -44.32396518	     -5.90153731	     20.82525167	    -83.58475672	     38.92235533	     66.94061871	     43.55800207	     46.64669760	    -10.40324854	     31.24628362	     26.21991732	    -45.00000000	    -45.00000000	    -34.77487251	      7.05189276	    -45.29553547	    -90.00000000	     44.03796824	     62.95051634	     44.56641794	    -15.41857682	    -24.99999983
      0.98000000	     -4.71416813	     -9.81538055	     90.00000000	     -0.00918626	      0.96844626	      0.02231185	     29.43783836	     20.02708841	     45.00000000	     45.00000000	    -44.43141318	     -5.88652317	     20.60781344	    -83.43687748	     39.07581717	     67.04062057	     43.59054200	     46.67607926	    -10.39361703	     31.25378643	     26.23967720	    -45.00000000	    -45.00000000	    -34.73512372	      7.05858270	    -45.23539856	    -90.00000000	     43.93554674	     63.11888470	     44.55717354	    -15.43001146	    -24.99999983
      0.99000000	     -4.83038475	     -9.90138169	     90.00000000	     -0.00889244	      0.96753152	      0.02220096	     29.41192321	     19.98218418	     45.00000000	     45.00000000	    -44.52628104	     -5.87704556	     20.41650622	    -83.18672607	     39.18119902	     67.12829064	     43.62501023	     46.70099954	    -10.39259611	     31.27457968	     26.28944287	    -45.00000000	    -45.00000000	    -34.63848760	      7.07250874	    -45.10670133	    -90.00000000	     43.83407411	     63.28457191	     44.54721575	    -15.44451027	    -24.99999983
      1.00000000	     -4.94203646	    -10.03826328	     90.00000000	     -0.00850793	      0.96717359	      0.02210296	     29.27780244	     19.75805042	     45.00000000	     45.00000000	    -45.00000000	     -5.80737655	     20.00634158	    -82.56743839	     38.91084773	     66.82793567	     43.80759180	     46.70800109	    -10.54597249	     31.26379514	     26.26593057	    -45.00000000	    -45.00000000	    -34.68420330	      7.07207807	    -44.39618164	    -90.00000000	     43.12698594	     63.13012272	     44.60440223	    -15.46595084	    -24.99999983
